{
    "asset" : {
        "generator" : "Khronos glTF Blender I/O v1.6.16",
        "version" : "2.0"
    },
    "scene" : 0,
    "scenes" : [
        {
            "extras" : {
                "glTF2ExportSettings" : {
                    "export_animations" : 1,
                    "export_cameras" : 0,
                    "export_colors" : 1,
                    "export_current_frame" : 1,
                    "export_extras" : 1,
                    "export_force_sampling" : 0,
                    "export_format" : "GLTF_EMBEDDED",
                    "export_image_format" : "AUTO",
                    "export_lights" : 0,
                    "export_morph" : 1,
                    "export_normals" : 1,
                    "export_skins" : 1,
                    "export_texcoords" : 1,
                    "export_yup" : 1,
                    "use_selection" : 1
                },
                "SRID" : "EPSG:4326",
                "crs x" : -0.2047099904999783,
                "crs y" : 2.0680762370000423,
                "longitude" : -0.2047099904999783,
                "latitude" : 2.0680762370000423
            },
            "name" : "Scene",
            "nodes" : [
                0
            ]
        }
    ],
    "nodes" : [
        {
            "extras" : {
                "sparkar_optimization" : {
                    "InvertedReducePercentage" : 0
                }
            },
            "mesh" : 0,
            "name" : "starlink"
        }
    ],
    "materials" : [
        {
            "doubleSided" : true,
            "name" : "Material.003",
            "pbrMetallicRoughness" : {
                "baseColorFactor" : [
                    0.010642382316291332,
                    0.03251733258366585,
                    0.8000000715255737,
                    1
                ],
                "metallicFactor" : 0,
                "roughnessFactor" : 0.5
            }
        }
    ],
    "meshes" : [
        {
            "name" : "Sphere.001",
            "primitives" : [
                {
                    "attributes" : {
                        "POSITION" : 0,
                        "NORMAL" : 1,
                        "TEXCOORD_0" : 2
                    },
                    "indices" : 3,
                    "material" : 0
                }
            ]
        }
    ],
    "accessors" : [
        {
            "bufferView" : 0,
            "componentType" : 5126,
            "count" : 47944,
            "max" : [
                0.18225978314876556,
                0.14677101373672485,
                0.1826642006635666
            ],
            "min" : [
                -0.18231672048568726,
                -0.17322897911071777,
                -0.1824493706226349
            ],
            "type" : "VEC3"
        },
        {
            "bufferView" : 1,
            "componentType" : 5126,
            "count" : 47944,
            "type" : "VEC3"
        },
        {
            "bufferView" : 2,
            "componentType" : 5126,
            "count" : 47944,
            "type" : "VEC2"
        },
        {
            "bufferView" : 3,
            "componentType" : 5123,
            "count" : 47952,
            "type" : "SCALAR"
        }
    ],
    "bufferViews" : [
        {
            "buffer" : 0,
            "byteLength" : 575328,
            "byteOffset" : 0
        },
        {
            "buffer" : 0,
            "byteLength" : 575328,
            "byteOffset" : 575328
        },
        {
            "buffer" : 0,
            "byteLength" : 383552,
            "byteOffset" : 1150656
        },
        {
            "buffer" : 0,
            "byteLength" : 95904,
            "byteOffset" : 1534208
        }
    ],
    "buffers" : [
        {
            "byteLength" : 1630112,
            "uri" : "data:application/octet-stream;base64,"
        }
    ]
}
