{
    "asset" : {
        "generator" : "Khronos glTF Blender I/O v1.6.16",
        "version" : "2.0"
    },
    "scene" : 0,
    "scenes" : [
        {
            "extras" : {
                "glTF2ExportSettings" : {
                    "export_animations" : 1,
                    "export_cameras" : 0,
                    "export_colors" : 1,
                    "export_current_frame" : 1,
                    "export_extras" : 1,
                    "export_force_sampling" : 0,
                    "export_format" : "GLTF_EMBEDDED",
                    "export_image_format" : "AUTO",
                    "export_lights" : 0,
                    "export_morph" : 1,
                    "export_normals" : 1,
                    "export_skins" : 1,
                    "export_texcoords" : 1,
                    "export_yup" : 1,
                    "use_selection" : 1
                },
                "SRID" : "EPSG:4326",
                "crs x" : -0.2047099904999783,
                "crs y" : 2.0680762370000423,
                "longitude" : -0.2047099904999783,
                "latitude" : 2.0680762370000423
            },
            "name" : "Scene",
            "nodes" : [
                0
            ]
        }
    ],
    "nodes" : [
        {
            "extras" : {
                "sparkar_optimization" : {
                    "InvertedReducePercentage" : 0
                }
            },
            "mesh" : 0,
            "name" : "Sphere.001"
        }
    ],
    "materials" : [
        {
            "doubleSided" : true,
            "name" : "Material.001",
            "pbrMetallicRoughness" : {
                "baseColorFactor" : [
                    0.8000000715255737,
                    0.7973586916923523,
                    0.03559878468513489,
                    1
                ],
                "metallicFactor" : 0,
                "roughnessFactor" : 0.5
            }
        }
    ],
    "meshes" : [
        {
            "name" : "Sphere.002",
            "primitives" : [
                {
                    "attributes" : {
                        "POSITION" : 0,
                        "NORMAL" : 1,
                        "TEXCOORD_0" : 2
                    },
                    "indices" : 3,
                    "material" : 0
                }
            ]
        }
    ],
    "accessors" : [
        {
            "bufferView" : 0,
            "componentType" : 5126,
            "count" : 61602,
            "max" : [
                1.2617391347885132,
                1.000020980834961,
                1.2616263628005981
            ],
            "min" : [
                -1.2616949081420898,
                -0.9999789595603943,
                -1.2615137100219727
            ],
            "type" : "VEC3"
        },
        {
            "bufferView" : 1,
            "componentType" : 5126,
            "count" : 61602,
            "type" : "VEC3"
        },
        {
            "bufferView" : 2,
            "componentType" : 5126,
            "count" : 61602,
            "type" : "VEC2"
        },
        {
            "bufferView" : 3,
            "componentType" : 5123,
            "count" : 61860,
            "type" : "SCALAR"
        }
    ],
    "bufferViews" : [
        {
            "buffer" : 0,
            "byteLength" : 739224,
            "byteOffset" : 0
        },
        {
            "buffer" : 0,
            "byteLength" : 739224,
            "byteOffset" : 739224
        },
        {
            "buffer" : 0,
            "byteLength" : 492816,
            "byteOffset" : 1478448
        },
        {
            "buffer" : 0,
            "byteLength" : 123720,
            "byteOffset" : 1971264
        }
    ],
    "buffers" : [
        {
            "byteLength" : 2094984,
            "uri" : "data:application/octet-stream;base64,"
        }
    ]
}
