{
    "asset" : {
        "generator" : "Khronos glTF Blender I/O v1.6.16",
        "version" : "2.0"
    },
    "scene" : 0,
    "scenes" : [
        {
            "extras" : {
                "SRID" : "EPSG:4326",
                "crs x" : -0.7849994579999304,
                "crs y" : -0.05134118649996822,
                "longitude" : -0.7849994579999304,
                "latitude" : -0.05134118649996822,
                "glTF2ExportSettings" : {
                    "export_animations" : 1,
                    "export_cameras" : 0,
                    "export_colors" : 1,
                    "export_extras" : 1,
                    "export_force_sampling" : 0,
                    "export_format" : "GLTF_EMBEDDED",
                    "export_image_format" : "AUTO",
                    "export_lights" : 0,
                    "export_morph" : 1,
                    "export_normals" : 1,
                    "export_skins" : 1,
                    "export_texcoords" : 1,
                    "export_yup" : 1,
                    "use_selection" : 1
                }
            },
            "name" : "Scene",
            "nodes" : [
                0
            ]
        }
    ],
    "nodes" : [
        {
            "extras" : {
                "sparkar_optimization" : {
                    "InvertedReducePercentage" : 0
                },
                "spark_blender_addon" : 1
            },
            "mesh" : 0,
            "name" : "Sphere.001"
        }
    ],
    "meshes" : [
        {
            "name" : "Sphere",
            "primitives" : [
                {
                    "attributes" : {
                        "POSITION" : 0,
                        "NORMAL" : 1,
                        "TEXCOORD_0" : 2
                    },
                    "indices" : 3
                }
            ]
        }
    ],
    "accessors" : [
        {
            "bufferView" : 0,
            "componentType" : 5126,
            "count" : 36000,
            "max" : [
                2.7184653282165527,
                2.250530242919922,
                2.5698540210723877
            ],
            "min" : [
                -2.6247715950012207,
                -2.2508275508880615,
                -2.613739490509033
            ],
            "type" : "VEC3"
        },
        {
            "bufferView" : 1,
            "componentType" : 5126,
            "count" : 36000,
            "type" : "VEC3"
        },
        {
            "bufferView" : 2,
            "componentType" : 5126,
            "count" : 36000,
            "type" : "VEC2"
        },
        {
            "bufferView" : 3,
            "componentType" : 5123,
            "count" : 36000,
            "type" : "SCALAR"
        }
    ],
    "bufferViews" : [
        {
            "buffer" : 0,
            "byteLength" : 432000,
            "byteOffset" : 0
        },
        {
            "buffer" : 0,
            "byteLength" : 432000,
            "byteOffset" : 432000
        },
        {
            "buffer" : 0,
            "byteLength" : 288000,
            "byteOffset" : 864000
        },
        {
            "buffer" : 0,
            "byteLength" : 72000,
            "byteOffset" : 1152000
        }
    ],
    "buffers" : [
        {
            "byteLength" : 1224000,
            "uri" : "data:application/octet-stream;base64,"
        }
    ]
}
