{
    "asset" : {
        "generator" : "Khronos glTF Blender I/O v1.6.16",
        "version" : "2.0"
    },
    "scene" : 0,
    "scenes" : [
        {
            "extras" : {
                "glTF2ExportSettings" : {
                    "export_animations" : 1,
                    "export_cameras" : 0,
                    "export_colors" : 1,
                    "export_current_frame" : 1,
                    "export_extras" : 1,
                    "export_force_sampling" : 0,
                    "export_format" : "GLTF_EMBEDDED",
                    "export_image_format" : "AUTO",
                    "export_lights" : 0,
                    "export_morph" : 1,
                    "export_normals" : 1,
                    "export_skins" : 1,
                    "export_texcoords" : 1,
                    "export_yup" : 1,
                    "use_selection" : 1
                },
                "SRID" : "EPSG:4326",
                "crs x" : -2.3734900579999447,
                "crs y" : -0.010665810999967107,
                "longitude" : -2.3734900579999447,
                "latitude" : -0.010665810999967107
            },
            "name" : "Scene",
            "nodes" : [
                0
            ]
        }
    ],
    "nodes" : [
        {
            "extras" : {
                "sparkar_optimization" : {
                    "InvertedReducePercentage" : 0
                }
            },
            "mesh" : 0,
            "name" : "Sphere.133",
            "rotation" : [
                0,
                -0.7071068286895752,
                0,
                0.7071067094802856
            ],
            "scale" : [
                0.04999999701976776,
                0.05000000074505806,
                0.04999999701976776
            ],
            "translation" : [
                0.048005785793066025,
                0.12308359891176224,
                -0.21757818758487701
            ]
        }
    ],
    "materials" : [
        {
            "doubleSided" : true,
            "name" : "Material.004",
            "pbrMetallicRoughness" : {
                "baseColorFactor" : [
                    0.8000000715255737,
                    0.010238095186650753,
                    0.6524044275283813,
                    1
                ],
                "metallicFactor" : 0,
                "roughnessFactor" : 0.5
            }
        }
    ],
    "meshes" : [
        {
            "name" : "Sphere.003",
            "primitives" : [
                {
                    "attributes" : {
                        "POSITION" : 0,
                        "NORMAL" : 1,
                        "TEXCOORD_0" : 2
                    },
                    "indices" : 3,
                    "material" : 0
                }
            ]
        }
    ],
    "accessors" : [
        {
            "bufferView" : 0,
            "componentType" : 5126,
            "count" : 38016,
            "max" : [
                9.344825744628906,
                1.5633336305618286,
                5.288341999053955
            ],
            "min" : [
                -0.5730888247489929,
                -6.486677169799805,
                -4.126185417175293
            ],
            "type" : "VEC3"
        },
        {
            "bufferView" : 1,
            "componentType" : 5126,
            "count" : 38016,
            "type" : "VEC3"
        },
        {
            "bufferView" : 2,
            "componentType" : 5126,
            "count" : 38016,
            "type" : "VEC2"
        },
        {
            "bufferView" : 3,
            "componentType" : 5123,
            "count" : 38016,
            "type" : "SCALAR"
        }
    ],
    "bufferViews" : [
        {
            "buffer" : 0,
            "byteLength" : 456192,
            "byteOffset" : 0
        },
        {
            "buffer" : 0,
            "byteLength" : 456192,
            "byteOffset" : 456192
        },
        {
            "buffer" : 0,
            "byteLength" : 304128,
            "byteOffset" : 912384
        },
        {
            "buffer" : 0,
            "byteLength" : 76032,
            "byteOffset" : 1216512
        }
    ],
    "buffers" : [
        {
            "byteLength" : 1292544,
            "uri" : "data:application/octet-stream;base64,"
        }
    ]
}
