{
    "asset" : {
        "generator" : "Khronos glTF Blender I/O v1.6.16",
        "version" : "2.0"
    },
    "scene" : 0,
    "scenes" : [
        {
            "extras" : {
                "SRID" : "EPSG:4326",
                "crs x" : -0.7849994579999304,
                "crs y" : -0.05134118649996822,
                "longitude" : -0.7849994579999304,
                "latitude" : -0.05134118649996822,
                "glTF2ExportSettings" : {
                    "export_animations" : 1,
                    "export_cameras" : 0,
                    "export_colors" : 1,
                    "export_current_frame" : 1,
                    "export_extras" : 1,
                    "export_force_sampling" : 0,
                    "export_format" : "GLTF_EMBEDDED",
                    "export_image_format" : "AUTO",
                    "export_lights" : 0,
                    "export_morph" : 1,
                    "export_normals" : 1,
                    "export_skins" : 1,
                    "export_texcoords" : 1,
                    "export_yup" : 1,
                    "use_selection" : 1
                }
            },
            "name" : "Scene",
            "nodes" : [
                0
            ]
        }
    ],
    "nodes" : [
        {
            "extras" : {
                "sparkar_optimization" : {
                    "InvertedReducePercentage" : 0
                }
            },
            "mesh" : 0,
            "name" : "starlink"
        }
    ],
    "meshes" : [
        {
            "name" : "Sphere.001",
            "primitives" : [
                {
                    "attributes" : {
                        "POSITION" : 0,
                        "NORMAL" : 1,
                        "TEXCOORD_0" : 2
                    },
                    "indices" : 3
                }
            ]
        }
    ],
    "accessors" : [
        {
            "bufferView" : 0,
            "componentType" : 5126,
            "count" : 47944,
            "max" : [
                1.1391236782073975,
                0.9173188209533691,
                1.1416512727737427
            ],
            "min" : [
                -1.1394795179367065,
                -1.0826811790466309,
                -1.1403086185455322
            ],
            "type" : "VEC3"
        },
        {
            "bufferView" : 1,
            "componentType" : 5126,
            "count" : 47944,
            "type" : "VEC3"
        },
        {
            "bufferView" : 2,
            "componentType" : 5126,
            "count" : 47944,
            "type" : "VEC2"
        },
        {
            "bufferView" : 3,
            "componentType" : 5123,
            "count" : 47952,
            "type" : "SCALAR"
        }
    ],
    "bufferViews" : [
        {
            "buffer" : 0,
            "byteLength" : 575328,
            "byteOffset" : 0
        },
        {
            "buffer" : 0,
            "byteLength" : 575328,
            "byteOffset" : 575328
        },
        {
            "buffer" : 0,
            "byteLength" : 383552,
            "byteOffset" : 1150656
        },
        {
            "buffer" : 0,
            "byteLength" : 95904,
            "byteOffset" : 1534208
        }
    ],
    "buffers" : [
        {
            "byteLength" : 1630112,
            "uri" : "data:application/octet-stream;base64,"
        }
    ]
}
